# xmcd
#
# Track frame offsets:
#	150
#	21439
#	27708
#	36335
#	40788
#	52461
#	66990
#	74279
#	84191
#	95895
#	110434
#	121279
#
# Disc length: 1786 seconds
#
# Revision: 0
# Processed by: cddbd v1.5.2PL0 Copyright (c) Steve Scherf et al.
# Submitted via: EasyCDDAExtractor 5.0.2.1
#
DISCID=b206f80c
DTITLE=Roland - A Tune For You
DYEAR=2009
DGENRE=Blues
TTITLE0=A Tune For You
TTITLE1=18 Strings and A Harp
TTITLE2=Impact House Carpenter Song
TTITLE3=A Leslie In My Head
TTITLE4=Buddy Is Holly, I'm Going Insane
TTITLE5=Lonely Summertime
TTITLE6=Kathy's Tune
TTITLE7=Cinderella In The Streets
TTITLE8=The Pretty Girl And The Freaks
TTITLE9=Suite For The Lost Peace
TTITLE10=It Keeps Raining
TTITLE11=See That My Grave Is Kept Clean
EXTD=
EXTT0=
EXTT1=
EXTT2=
EXTT3=
EXTT4=
EXTT5=
EXTT6=
EXTT7=
EXTT8=
EXTT9=
EXTT10=
EXTT11=
PLAYORDER=
